<svg id="visual" viewBox="0 0 960 540" width="960" height="540" xmlns="http://www.w3.org/2000/svg" xmlns:xlink="http://www.w3.org/1999/xlink" version="1.1"><rect x="0" y="0" width="960" height="540" fill="#031633"></rect><path d="M0 364L12.3 364.8C24.7 365.7 49.3 367.3 74 362.2C98.7 357 123.3 345 148 340C172.7 335 197.3 337 221.8 344.8C246.3 352.7 270.7 366.3 295.2 364.8C319.7 363.3 344.3 346.7 369 342.2C393.7 337.7 418.3 345.3 443 346.3C467.7 347.3 492.3 341.7 517 339.5C541.7 337.3 566.3 338.7 591 347C615.7 355.3 640.3 370.7 664.8 376.3C689.3 382 713.7 378 738.2 379.3C762.7 380.7 787.3 387.3 812 385C836.7 382.7 861.3 371.3 886 368.3C910.7 365.3 935.3 370.7 947.7 373.3L960 376L960 541L947.7 541C935.3 541 910.7 541 886 541C861.3 541 836.7 541 812 541C787.3 541 762.7 541 738.2 541C713.7 541 689.3 541 664.8 541C640.3 541 615.7 541 591 541C566.3 541 541.7 541 517 541C492.3 541 467.7 541 443 541C418.3 541 393.7 541 369 541C344.3 541 319.7 541 295.2 541C270.7 541 246.3 541 221.8 541C197.3 541 172.7 541 148 541C123.3 541 98.7 541 74 541C49.3 541 24.7 541 12.3 541L0 541Z" fill="#3d8bfd"></path><path d="M0 381L12.3 381.5C24.7 382 49.3 383 74 380.2C98.7 377.3 123.3 370.7 148 370.8C172.7 371 197.3 378 221.8 382.8C246.3 387.7 270.7 390.3 295.2 392.7C319.7 395 344.3 397 369 397.2C393.7 397.3 418.3 395.7 443 399.3C467.7 403 492.3 412 517 413.3C541.7 414.7 566.3 408.3 591 407.3C615.7 406.3 640.3 410.7 664.8 409.7C689.3 408.7 713.7 402.3 738.2 395.2C762.7 388 787.3 380 812 376.5C836.7 373 861.3 374 886 378.5C910.7 383 935.3 391 947.7 395L960 399L960 541L947.7 541C935.3 541 910.7 541 886 541C861.3 541 836.7 541 812 541C787.3 541 762.7 541 738.2 541C713.7 541 689.3 541 664.8 541C640.3 541 615.7 541 591 541C566.3 541 541.7 541 517 541C492.3 541 467.7 541 443 541C418.3 541 393.7 541 369 541C344.3 541 319.7 541 295.2 541C270.7 541 246.3 541 221.8 541C197.3 541 172.7 541 148 541C123.3 541 98.7 541 74 541C49.3 541 24.7 541 12.3 541L0 541Z" fill="#3476dd"></path><path d="M0 428L12.3 425.3C24.7 422.7 49.3 417.3 74 416.7C98.7 416 123.3 420 148 416.7C172.7 413.3 197.3 402.7 221.8 400C246.3 397.3 270.7 402.7 295.2 411.8C319.7 421 344.3 434 369 440.5C393.7 447 418.3 447 443 437.5C467.7 428 492.3 409 517 403.2C541.7 397.3 566.3 404.7 591 405.5C615.7 406.3 640.3 400.7 664.8 404.2C689.3 407.7 713.7 420.3 738.2 421.3C762.7 422.3 787.3 411.7 812 409.7C836.7 407.7 861.3 414.3 886 414C910.7 413.7 935.3 406.3 947.7 402.7L960 399L960 541L947.7 541C935.3 541 910.7 541 886 541C861.3 541 836.7 541 812 541C787.3 541 762.7 541 738.2 541C713.7 541 689.3 541 664.8 541C640.3 541 615.7 541 591 541C566.3 541 541.7 541 517 541C492.3 541 467.7 541 443 541C418.3 541 393.7 541 369 541C344.3 541 319.7 541 295.2 541C270.7 541 246.3 541 221.8 541C197.3 541 172.7 541 148 541C123.3 541 98.7 541 74 541C49.3 541 24.7 541 12.3 541L0 541Z" fill="#2963bd"></path><path d="M0 465L12.3 466C24.7 467 49.3 469 74 468.2C98.7 467.3 123.3 463.7 148 461.5C172.7 459.3 197.3 458.7 221.8 453C246.3 447.3 270.7 436.7 295.2 431C319.7 425.3 344.3 424.7 369 426.2C393.7 427.7 418.3 431.3 443 432C467.7 432.7 492.3 430.3 517 434.5C541.7 438.7 566.3 449.3 591 449C615.7 448.7 640.3 437.3 664.8 438C689.3 438.7 713.7 451.3 738.2 458.5C762.7 465.7 787.3 467.3 812 467.7C836.7 468 861.3 467 886 464.7C910.7 462.3 935.3 458.7 947.7 456.8L960 455L960 541L947.7 541C935.3 541 910.7 541 886 541C861.3 541 836.7 541 812 541C787.3 541 762.7 541 738.2 541C713.7 541 689.3 541 664.8 541C640.3 541 615.7 541 591 541C566.3 541 541.7 541 517 541C492.3 541 467.7 541 443 541C418.3 541 393.7 541 369 541C344.3 541 319.7 541 295.2 541C270.7 541 246.3 541 221.8 541C197.3 541 172.7 541 148 541C123.3 541 98.7 541 74 541C49.3 541 24.7 541 12.3 541L0 541Z" fill="#1e509f"></path><path d="M0 471L12.3 470.3C24.7 469.7 49.3 468.3 74 468.3C98.7 468.3 123.3 469.7 148 468C172.7 466.3 197.3 461.7 221.8 464.2C246.3 466.7 270.7 476.3 295.2 478.5C319.7 480.7 344.3 475.3 369 471.7C393.7 468 418.3 466 443 468.7C467.7 471.3 492.3 478.7 517 477.5C541.7 476.3 566.3 466.7 591 463.5C615.7 460.3 640.3 463.7 664.8 464.5C689.3 465.3 713.7 463.7 738.2 465.8C762.7 468 787.3 474 812 477.7C836.7 481.3 861.3 482.7 886 480.2C910.7 477.7 935.3 471.3 947.7 468.2L960 465L960 541L947.7 541C935.3 541 910.7 541 886 541C861.3 541 836.7 541 812 541C787.3 541 762.7 541 738.2 541C713.7 541 689.3 541 664.8 541C640.3 541 615.7 541 591 541C566.3 541 541.7 541 517 541C492.3 541 467.7 541 443 541C418.3 541 393.7 541 369 541C344.3 541 319.7 541 295.2 541C270.7 541 246.3 541 221.8 541C197.3 541 172.7 541 148 541C123.3 541 98.7 541 74 541C49.3 541 24.7 541 12.3 541L0 541Z" fill="#133d81"></path><path d="M0 490L12.3 489.2C24.7 488.3 49.3 486.7 74 488.5C98.7 490.3 123.3 495.7 148 500.3C172.7 505 197.3 509 221.8 509.8C246.3 510.7 270.7 508.3 295.2 504.2C319.7 500 344.3 494 369 493.3C393.7 492.7 418.3 497.3 443 498.5C467.7 499.7 492.3 497.3 517 497C541.7 496.7 566.3 498.3 591 500.3C615.7 502.3 640.3 504.7 664.8 506.8C689.3 509 713.7 511 738.2 511.7C762.7 512.3 787.3 511.7 812 511.7C836.7 511.7 861.3 512.3 886 511.2C910.7 510 935.3 507 947.7 505.5L960 504L960 541L947.7 541C935.3 541 910.7 541 886 541C861.3 541 836.7 541 812 541C787.3 541 762.7 541 738.2 541C713.7 541 689.3 541 664.8 541C640.3 541 615.7 541 591 541C566.3 541 541.7 541 517 541C492.3 541 467.7 541 443 541C418.3 541 393.7 541 369 541C344.3 541 319.7 541 295.2 541C270.7 541 246.3 541 221.8 541C197.3 541 172.7 541 148 541C123.3 541 98.7 541 74 541C49.3 541 24.7 541 12.3 541L0 541Z" fill="#052c65"></path></svg>