<svg id="visual" viewBox="0 0 960 540" width="960" height="540" xmlns="http://www.w3.org/2000/svg" xmlns:xlink="http://www.w3.org/1999/xlink" version="1.1"><rect x="0" y="0" width="960" height="540" fill="#031633"></rect><path d="M0 282L32 280.7C64 279.3 128 276.7 192 270.8C256 265 320 256 384 251.7C448 247.3 512 247.7 576 254C640 260.3 704 272.7 768 269.2C832 265.7 896 246.3 928 236.7L960 227L960 541L928 541C896 541 832 541 768 541C704 541 640 541 576 541C512 541 448 541 384 541C320 541 256 541 192 541C128 541 64 541 32 541L0 541Z" fill="#3d8bfd"></path><path d="M0 259L32 269.8C64 280.7 128 302.3 192 304.5C256 306.7 320 289.3 384 278.7C448 268 512 264 576 272.5C640 281 704 302 768 308.8C832 315.7 896 308.3 928 304.7L960 301L960 541L928 541C896 541 832 541 768 541C704 541 640 541 576 541C512 541 448 541 384 541C320 541 256 541 192 541C128 541 64 541 32 541L0 541Z" fill="#357ae2"></path><path d="M0 357L32 353C64 349 128 341 192 336C256 331 320 329 384 337.3C448 345.7 512 364.3 576 368.3C640 372.3 704 361.7 768 348.3C832 335 896 319 928 311L960 303L960 541L928 541C896 541 832 541 768 541C704 541 640 541 576 541C512 541 448 541 384 541C320 541 256 541 192 541C128 541 64 541 32 541L0 541Z" fill="#2d69c8"></path><path d="M0 392L32 391.5C64 391 128 390 192 382.7C256 375.3 320 361.7 384 357.5C448 353.3 512 358.7 576 361.8C640 365 704 366 768 371.8C832 377.7 896 388.3 928 393.7L960 399L960 541L928 541C896 541 832 541 768 541C704 541 640 541 576 541C512 541 448 541 384 541C320 541 256 541 192 541C128 541 64 541 32 541L0 541Z" fill="#2459ae"></path><path d="M0 408L32 412.7C64 417.3 128 426.7 192 425.8C256 425 320 414 384 405.3C448 396.7 512 390.3 576 395C640 399.7 704 415.3 768 424.3C832 433.3 896 435.7 928 436.8L960 438L960 541L928 541C896 541 832 541 768 541C704 541 640 541 576 541C512 541 448 541 384 541C320 541 256 541 192 541C128 541 64 541 32 541L0 541Z" fill="#1b4995"></path><path d="M0 460L32 457C64 454 128 448 192 442.5C256 437 320 432 384 435.3C448 438.7 512 450.3 576 455.8C640 461.3 704 460.7 768 458.7C832 456.7 896 453.3 928 451.7L960 450L960 541L928 541C896 541 832 541 768 541C704 541 640 541 576 541C512 541 448 541 384 541C320 541 256 541 192 541C128 541 64 541 32 541L0 541Z" fill="#103a7c"></path><path d="M0 499L32 501.2C64 503.3 128 507.7 192 508C256 508.3 320 504.7 384 497.7C448 490.7 512 480.3 576 478.5C640 476.7 704 483.3 768 483.8C832 484.3 896 478.7 928 475.8L960 473L960 541L928 541C896 541 832 541 768 541C704 541 640 541 576 541C512 541 448 541 384 541C320 541 256 541 192 541C128 541 64 541 32 541L0 541Z" fill="#052c65"></path></svg>