<svg id="visual" viewBox="0 0 960 540" width="960" height="540" xmlns="http://www.w3.org/2000/svg" xmlns:xlink="http://www.w3.org/1999/xlink" version="1.1"><rect x="0" y="0" width="960" height="540" fill="#031633"></rect><path d="M553 0L537.7 15C522.3 30 491.7 60 471.7 90C451.7 120 442.3 150 455.8 180C469.3 210 505.7 240 508.7 270C511.7 300 481.3 330 470.7 360C460 390 469 420 464.7 450C460.3 480 442.7 510 433.8 525L425 540L0 540L0 525C0 510 0 480 0 450C0 420 0 390 0 360C0 330 0 300 0 270C0 240 0 210 0 180C0 150 0 120 0 90C0 60 0 30 0 15L0 0Z" fill="#3d8bfd"></path><path d="M382 0L390.7 15C399.3 30 416.7 60 423.7 90C430.7 120 427.3 150 417.8 180C408.3 210 392.7 240 383.8 270C375 300 373 330 367.8 360C362.7 390 354.3 420 349.2 450C344 480 342 510 341 525L340 540L0 540L0 525C0 510 0 480 0 450C0 420 0 390 0 360C0 330 0 300 0 270C0 240 0 210 0 180C0 150 0 120 0 90C0 60 0 30 0 15L0 0Z" fill="#3476dd"></path><path d="M305 0L301 15C297 30 289 60 284.2 90C279.3 120 277.7 150 278.2 180C278.7 210 281.3 240 287.2 270C293 300 302 330 301 360C300 390 289 420 290.7 450C292.3 480 306.7 510 313.8 525L321 540L0 540L0 525C0 510 0 480 0 450C0 420 0 390 0 360C0 330 0 300 0 270C0 240 0 210 0 180C0 150 0 120 0 90C0 60 0 30 0 15L0 0Z" fill="#2963bd"></path><path d="M277 0L273.5 15C270 30 263 60 258.3 90C253.7 120 251.3 150 244.7 180C238 210 227 240 224.2 270C221.3 300 226.7 330 238.7 360C250.7 390 269.3 420 263.7 450C258 480 228 510 213 525L198 540L0 540L0 525C0 510 0 480 0 450C0 420 0 390 0 360C0 330 0 300 0 270C0 240 0 210 0 180C0 150 0 120 0 90C0 60 0 30 0 15L0 0Z" fill="#1e509f"></path><path d="M219 0L208.7 15C198.3 30 177.7 60 164.3 90C151 120 145 150 153.5 180C162 210 185 240 188.2 270C191.3 300 174.7 330 175 360C175.3 390 192.7 420 195.5 450C198.3 480 186.7 510 180.8 525L175 540L0 540L0 525C0 510 0 480 0 450C0 420 0 390 0 360C0 330 0 300 0 270C0 240 0 210 0 180C0 150 0 120 0 90C0 60 0 30 0 15L0 0Z" fill="#133d81"></path><path d="M62 0L62.5 15C63 30 64 60 74 90C84 120 103 150 112.2 180C121.3 210 120.7 240 122 270C123.3 300 126.7 330 117.2 360C107.7 390 85.3 420 85.2 450C85 480 107 510 118 525L129 540L0 540L0 525C0 510 0 480 0 450C0 420 0 390 0 360C0 330 0 300 0 270C0 240 0 210 0 180C0 150 0 120 0 90C0 60 0 30 0 15L0 0Z" fill="#052c65"></path></svg>