<svg id="visual" viewBox="0 0 960 540" width="960" height="540" xmlns="http://www.w3.org/2000/svg" xmlns:xlink="http://www.w3.org/1999/xlink" version="1.1"><rect x="0" y="0" width="960" height="540" fill="#031633"></rect><path d="M517 0L516.2 15C515.3 30 513.7 60 498.7 90C483.7 120 455.3 150 437.3 180C419.3 210 411.7 240 409.3 270C407 300 410 330 424.7 360C439.3 390 465.7 420 472.7 450C479.7 480 467.3 510 461.2 525L455 540L0 540L0 525C0 510 0 480 0 450C0 420 0 390 0 360C0 330 0 300 0 270C0 240 0 210 0 180C0 150 0 120 0 90C0 60 0 30 0 15L0 0Z" fill="#3d8bfd"></path><path d="M412 0L411 15C410 30 408 60 415.8 90C423.7 120 441.3 150 448.8 180C456.3 210 453.7 240 446.7 270C439.7 300 428.3 330 426.5 360C424.7 390 432.3 420 430.7 450C429 480 418 510 412.5 525L407 540L0 540L0 525C0 510 0 480 0 450C0 420 0 390 0 360C0 330 0 300 0 270C0 240 0 210 0 180C0 150 0 120 0 90C0 60 0 30 0 15L0 0Z" fill="#3476dd"></path><path d="M279 0L280.3 15C281.7 30 284.3 60 290 90C295.7 120 304.3 150 304.3 180C304.3 210 295.7 240 298.7 270C301.7 300 316.3 330 313 360C309.7 390 288.3 420 279.7 450C271 480 275 510 277 525L279 540L0 540L0 525C0 510 0 480 0 450C0 420 0 390 0 360C0 330 0 300 0 270C0 240 0 210 0 180C0 150 0 120 0 90C0 60 0 30 0 15L0 0Z" fill="#2963bd"></path><path d="M265 0L269.3 15C273.7 30 282.3 60 271.3 90C260.3 120 229.7 150 223.3 180C217 210 235 240 249.5 270C264 300 275 330 276 360C277 390 268 420 258.8 450C249.7 480 240.3 510 235.7 525L231 540L0 540L0 525C0 510 0 480 0 450C0 420 0 390 0 360C0 330 0 300 0 270C0 240 0 210 0 180C0 150 0 120 0 90C0 60 0 30 0 15L0 0Z" fill="#1e509f"></path><path d="M190 0L183.8 15C177.7 30 165.3 60 161.3 90C157.3 120 161.7 150 159 180C156.3 210 146.7 240 147.5 270C148.3 300 159.7 330 172.7 360C185.7 390 200.3 420 202 450C203.7 480 192.3 510 186.7 525L181 540L0 540L0 525C0 510 0 480 0 450C0 420 0 390 0 360C0 330 0 300 0 270C0 240 0 210 0 180C0 150 0 120 0 90C0 60 0 30 0 15L0 0Z" fill="#133d81"></path><path d="M103 0L107 15C111 30 119 60 119.2 90C119.3 120 111.7 150 101.3 180C91 210 78 240 73.8 270C69.7 300 74.3 330 75.2 360C76 390 73 420 80.3 450C87.7 480 105.3 510 114.2 525L123 540L0 540L0 525C0 510 0 480 0 450C0 420 0 390 0 360C0 330 0 300 0 270C0 240 0 210 0 180C0 150 0 120 0 90C0 60 0 30 0 15L0 0Z" fill="#052c65"></path></svg>